<mxfile host="app.diagrams.net" modified="2023-02-20T14:58:17.492Z" agent="5.0 (Macintosh; Intel Mac OS X 10_15_7) AppleWebKit/537.36 (KHTML, like Gecko) Chrome/110.0.0.0 Safari/537.36" etag="t1KhxONuigRrS0M7mbr_" version="20.8.20" type="github">
  <diagram id="C5RBs43oDa-KdzZeNtuy" name="Page-1">
    <mxGraphModel dx="1590" dy="1080" grid="1" gridSize="10" guides="1" tooltips="1" connect="1" arrows="1" fold="1" page="1" pageScale="1" pageWidth="827" pageHeight="1169" math="0" shadow="0">
      <root>
        <mxCell id="WIyWlLk6GJQsqaUBKTNV-0" />
        <mxCell id="WIyWlLk6GJQsqaUBKTNV-1" parent="WIyWlLk6GJQsqaUBKTNV-0" />
        <mxCell id="d1Z1R_iXCc61baM-Fe20-1" value="End" style="ellipse;whiteSpace=wrap;html=1;aspect=fixed;fillColor=#f8cecc;strokeColor=#b85450;fontStyle=1;strokeWidth=2;" parent="WIyWlLk6GJQsqaUBKTNV-1" vertex="1">
          <mxGeometry x="115" y="540" width="70" height="70" as="geometry" />
        </mxCell>
        <mxCell id="d1Z1R_iXCc61baM-Fe20-11" style="edgeStyle=orthogonalEdgeStyle;rounded=0;orthogonalLoop=1;jettySize=auto;html=1;entryX=0.5;entryY=0;entryDx=0;entryDy=0;fontColor=#FFFFFF;" parent="WIyWlLk6GJQsqaUBKTNV-1" source="d1Z1R_iXCc61baM-Fe20-2" target="d1Z1R_iXCc61baM-Fe20-9" edge="1">
          <mxGeometry relative="1" as="geometry" />
        </mxCell>
        <mxCell id="d1Z1R_iXCc61baM-Fe20-2" value="Start" style="ellipse;whiteSpace=wrap;html=1;aspect=fixed;fillColor=#d5e8d4;strokeColor=#82b366;fontStyle=1;strokeWidth=2;" parent="WIyWlLk6GJQsqaUBKTNV-1" vertex="1">
          <mxGeometry x="115" y="40" width="70" height="70" as="geometry" />
        </mxCell>
        <mxCell id="d1Z1R_iXCc61baM-Fe20-13" style="edgeStyle=orthogonalEdgeStyle;rounded=0;orthogonalLoop=1;jettySize=auto;html=1;entryX=0;entryY=0.5;entryDx=0;entryDy=0;fontColor=#FFFFFF;" parent="WIyWlLk6GJQsqaUBKTNV-1" source="d1Z1R_iXCc61baM-Fe20-7" edge="1">
          <mxGeometry relative="1" as="geometry">
            <mxPoint x="270" y="325" as="targetPoint" />
          </mxGeometry>
        </mxCell>
        <mxCell id="DBvNRdDZKg7KF4jd3yYm-1" value="" style="edgeStyle=orthogonalEdgeStyle;rounded=0;orthogonalLoop=1;jettySize=auto;html=1;" parent="WIyWlLk6GJQsqaUBKTNV-1" source="d1Z1R_iXCc61baM-Fe20-7" target="DBvNRdDZKg7KF4jd3yYm-0" edge="1">
          <mxGeometry relative="1" as="geometry" />
        </mxCell>
        <mxCell id="d1Z1R_iXCc61baM-Fe20-7" value="Client ingin &lt;br&gt;melihat lebih banyak informasi spesifik?" style="rhombus;whiteSpace=wrap;html=1;strokeWidth=1;fillColor=#dae8fc;strokeColor=#6c8ebf;" parent="WIyWlLk6GJQsqaUBKTNV-1" vertex="1">
          <mxGeometry x="80" y="260" width="140" height="130" as="geometry" />
        </mxCell>
        <mxCell id="d1Z1R_iXCc61baM-Fe20-12" style="edgeStyle=orthogonalEdgeStyle;rounded=0;orthogonalLoop=1;jettySize=auto;html=1;fontColor=#FFFFFF;" parent="WIyWlLk6GJQsqaUBKTNV-1" source="d1Z1R_iXCc61baM-Fe20-9" target="d1Z1R_iXCc61baM-Fe20-7" edge="1">
          <mxGeometry relative="1" as="geometry" />
        </mxCell>
        <mxCell id="d1Z1R_iXCc61baM-Fe20-9" value="Client berinteraksi dengan&lt;br&gt;tampilan antarmuka landing page" style="rounded=1;whiteSpace=wrap;html=1;fontSize=12;glass=0;strokeWidth=1;shadow=0;" parent="WIyWlLk6GJQsqaUBKTNV-1" vertex="1">
          <mxGeometry x="50" y="150" width="200" height="70" as="geometry" />
        </mxCell>
        <mxCell id="d1Z1R_iXCc61baM-Fe20-18" value="&lt;font color=&quot;#000000&quot;&gt;Ya&lt;/font&gt;" style="text;html=1;strokeColor=none;fillColor=none;align=center;verticalAlign=middle;whiteSpace=wrap;rounded=0;fontColor=#FFFFFF;" parent="WIyWlLk6GJQsqaUBKTNV-1" vertex="1">
          <mxGeometry x="220" y="300" width="20" height="20" as="geometry" />
        </mxCell>
        <mxCell id="d1Z1R_iXCc61baM-Fe20-19" value="&lt;font color=&quot;#000000&quot;&gt;Tidak&lt;/font&gt;" style="text;html=1;strokeColor=none;fillColor=none;align=center;verticalAlign=middle;whiteSpace=wrap;rounded=0;fontColor=#FFFFFF;" parent="WIyWlLk6GJQsqaUBKTNV-1" vertex="1">
          <mxGeometry x="165" y="390" width="20" height="20" as="geometry" />
        </mxCell>
        <mxCell id="DBvNRdDZKg7KF4jd3yYm-2" value="" style="edgeStyle=orthogonalEdgeStyle;rounded=0;orthogonalLoop=1;jettySize=auto;html=1;" parent="WIyWlLk6GJQsqaUBKTNV-1" source="DBvNRdDZKg7KF4jd3yYm-0" target="d1Z1R_iXCc61baM-Fe20-1" edge="1">
          <mxGeometry relative="1" as="geometry" />
        </mxCell>
        <mxCell id="DBvNRdDZKg7KF4jd3yYm-0" value="informasi yang client inginkan" style="shape=parallelogram;perimeter=parallelogramPerimeter;whiteSpace=wrap;html=1;fixedSize=1;strokeWidth=1;fillColor=#fff2cc;strokeColor=#d6b656;" parent="WIyWlLk6GJQsqaUBKTNV-1" vertex="1">
          <mxGeometry x="50" y="430" width="200" height="70" as="geometry" />
        </mxCell>
        <mxCell id="QkUZQqh1k1opKRiZHYn3-3" value="" style="edgeStyle=orthogonalEdgeStyle;rounded=0;orthogonalLoop=1;jettySize=auto;html=1;" edge="1" parent="WIyWlLk6GJQsqaUBKTNV-1" source="DBvNRdDZKg7KF4jd3yYm-4" target="QkUZQqh1k1opKRiZHYn3-2">
          <mxGeometry relative="1" as="geometry" />
        </mxCell>
        <mxCell id="DBvNRdDZKg7KF4jd3yYm-4" value="kumpulan informasi dengan&amp;nbsp;&lt;br&gt;kategori spesifik" style="shape=parallelogram;perimeter=parallelogramPerimeter;whiteSpace=wrap;html=1;fixedSize=1;strokeWidth=1;fillColor=#fff2cc;strokeColor=#d6b656;" parent="WIyWlLk6GJQsqaUBKTNV-1" vertex="1">
          <mxGeometry x="420" y="290" width="200" height="70" as="geometry" />
        </mxCell>
        <mxCell id="QkUZQqh1k1opKRiZHYn3-1" value="" style="edgeStyle=orthogonalEdgeStyle;rounded=0;orthogonalLoop=1;jettySize=auto;html=1;" edge="1" parent="WIyWlLk6GJQsqaUBKTNV-1" source="QkUZQqh1k1opKRiZHYn3-0" target="DBvNRdDZKg7KF4jd3yYm-4">
          <mxGeometry relative="1" as="geometry" />
        </mxCell>
        <mxCell id="QkUZQqh1k1opKRiZHYn3-0" value="Client mencari kategori informasi&lt;br&gt;dan membukanya" style="rounded=1;whiteSpace=wrap;html=1;fontSize=12;glass=0;strokeWidth=1;shadow=0;" vertex="1" parent="WIyWlLk6GJQsqaUBKTNV-1">
          <mxGeometry x="270" y="290" width="120" height="70" as="geometry" />
        </mxCell>
        <mxCell id="QkUZQqh1k1opKRiZHYn3-4" style="edgeStyle=orthogonalEdgeStyle;rounded=0;orthogonalLoop=1;jettySize=auto;html=1;" edge="1" parent="WIyWlLk6GJQsqaUBKTNV-1" source="QkUZQqh1k1opKRiZHYn3-2" target="DBvNRdDZKg7KF4jd3yYm-0">
          <mxGeometry relative="1" as="geometry" />
        </mxCell>
        <mxCell id="QkUZQqh1k1opKRiZHYn3-2" value="Client mencari informasi yang diinginkan" style="rounded=1;whiteSpace=wrap;html=1;fontSize=12;glass=0;strokeWidth=1;shadow=0;" vertex="1" parent="WIyWlLk6GJQsqaUBKTNV-1">
          <mxGeometry x="460" y="430" width="120" height="70" as="geometry" />
        </mxCell>
      </root>
    </mxGraphModel>
  </diagram>
</mxfile>
